<?xml version="1.0" encoding="UTF-8"?>
<svg id="Capa_1" data-name="Capa 1" xmlns="http://www.w3.org/2000/svg" viewBox="0 0 1380 776">
  <defs>
    <style>
      .cls-1 {
        font-size: 153.02px;
      }

      .cls-1, .cls-2, .cls-3, .cls-4 {
        fill: #c1846a;
      }

      .cls-1, .cls-4 {
        font-family: HarlowSolid, 'Harlow Solid Italic';
        isolation: isolate;
      }

      .cls-2 {
        stroke: #c1846a;
        stroke-miterlimit: 10;
        stroke-width: 9px;
      }

      .cls-5 {
        fill: #0e3157;
      }

      .cls-4 {
        font-size: 191.98px;
      }
    </style>
  </defs>
  <g id="Capa_1-2" data-name="Capa 1">
    <g>
      <path class="cls-5" d="m.5,775.5v-451.9c.6-42.7.8-82.3.8-121.2,1.6-10.9,3-20.5,4.2-29.3.2-1.6-.2-3.1-1.1-4.4-.9-1.2-2.4-2.1-3.9-2.4V.5h1379v775h-560.7c-.9-1.7-2.6-2.7-4.7-2.7-21.2,0-43.5.9-68.4,2.7H.5Z"/>
      <path d="m1379,1v774h-559.9c-1-1.7-2.8-2.7-5-2.7-21.1,0-43.5.9-68.4,2.7H1v-451.4c.6-42.7.8-82.3.8-121.1,1.6-11.1,3-20.5,4.2-29.3.2-1.7-.2-3.4-1.2-4.8-.9-1.2-2.3-2.1-3.8-2.5V1h1378m1-1H0v166.7c2.7.4,5.5,2.8,5,6.3-1.3,9.8-2.8,19.6-4.2,29.4,0,40.4-.3,80.8-.8,121.2v452.4h745.7c22.8-1.6,45.6-2.6,68.4-2.7h0c2.2,0,3.6,1.2,4.3,2.7h561.5V0h.1Z"/>
    </g>
    <ellipse class="cls-2" cx="697.3" cy="412" rx="189.2" ry="191.5"/>
    <ellipse class="cls-5" cx="690" cy="412" rx="100.5" ry="97.6"/>
    <path class="cls-3" d="m766,176.5h-137c-14.4,0-26-11.6-26-26h0c0-14.4,11.6-26,26-26h137c14.4,0,26,11.6,26,26h0c0,14.4-11.6,26-26,26Z"/>
    <text class="cls-1" transform="translate(208.16 427.46) scale(1.53 1)"><tspan x="0" y="0">N</tspan></text>
    <text class="cls-4" transform="translate(898.76 468.7) scale(1.43 1)"><tspan x="0" y="0">U</tspan></text>
    <path class="cls-2" d="m657.8,223.5v-47h86.6v54.7s-47-25-86.6-7.7Z"/>
  </g>
</svg>