<?xml version="1.0" encoding="utf-8"?>
<!-- Generator: Adobe Illustrator 27.2.0, SVG Export Plug-In . SVG Version: 6.00 Build 0)  -->
<svg version="1.1" id="Capa_1" xmlns="http://www.w3.org/2000/svg" xmlns:xlink="http://www.w3.org/1999/xlink" x="0px" y="0px"
	 viewBox="0 0 1366 768" style="enable-background:new 0 0 1366 768;" xml:space="preserve">
<style type="text/css">
	.st0{fill:#0E3157;}
	.st1{fill:#C1846A;stroke:#C1846A;stroke-width:9;stroke-miterlimit:10;}
	.st2{fill:#C1846A;}
	.st3{font-family:'HarlowSolid';}
	.st4{font-size:153.0165px;}
	.st5{font-size:191.977px;}
</style>
<g id="Capa_1_00000170250007780590750160000016634599126484215200_">
	<g>
		<path class="st0" d="M-7,771.5V319.6c0.6-42.7,0.8-82.3,0.8-121.2c1.6-10.9,3-20.5,4.2-29.3c0.2-1.6-0.2-3.1-1.1-4.4
			c-0.9-1.2-2.4-2.1-3.9-2.4V-3.5h1379v775H811.3c-0.9-1.7-2.6-2.7-4.7-2.7c-21.2,0-43.5,0.9-68.4,2.7H-7z"/>
		<g>
			<path d="M1371.5-3v774H811.6c-1-1.7-2.8-2.7-5-2.7c-21.1,0-43.5,0.9-68.4,2.7H-6.5V319.6c0.6-42.7,0.8-82.3,0.8-121.1
				c1.6-11.1,3-20.5,4.2-29.3c0.2-1.7-0.2-3.4-1.2-4.8c-0.9-1.2-2.3-2.1-3.8-2.5V-3H1371.5 M1372.5-4H-7.5v166.7
				c2.7,0.4,5.5,2.8,5,6.3c-1.3,9.8-2.8,19.6-4.2,29.4c0,40.4-0.3,80.8-0.8,121.2V772h745.7c22.8-1.6,45.6-2.6,68.4-2.7l0,0
				c2.2,0,3.6,1.2,4.3,2.7h561.5L1372.5-4L1372.5-4z"/>
		</g>
	</g>
	<ellipse class="st1" cx="689.8" cy="408" rx="189.2" ry="191.5"/>
	<ellipse class="st0" cx="682.5" cy="408" rx="100.5" ry="97.6"/>
	<path class="st2" d="M758.5,172.5h-137c-14.4,0-26-11.6-26-26l0,0c0-14.4,11.6-26,26-26h137c14.4,0,26,11.6,26,26l0,0
		C784.5,160.9,772.9,172.5,758.5,172.5z"/>
	<text transform="matrix(1.5261 0 0 1 200.6572 423.4648)" class="st2 st3 st4">N</text>
	<text transform="matrix(1.4317 0 0 1 891.2607 464.7031)" class="st2 st3 st5">U</text>
	<path class="st1" d="M650.3,219.5v-47h75.1h11.5v54.7C736.9,227.2,689.9,202.2,650.3,219.5z"/>
</g>
<g id="Capa_2_00000057112604431576167260000008753741832778728098_">
</g>
</svg>
