<?xml version="1.0" encoding="utf-8"?>
<!-- Generator: Adobe Illustrator 27.1.1, SVG Export Plug-In . SVG Version: 6.00 Build 0)  -->
<svg version="1.1" id="Capa_1" xmlns="http://www.w3.org/2000/svg" xmlns:xlink="http://www.w3.org/1999/xlink" x="0px" y="0px"
	 viewBox="0 0 1366 768" style="enable-background:new 0 0 1366 768;" xml:space="preserve">
<style type="text/css">
	.st0{fill:#0E3157;}
	.st1{fill:#C1846A;stroke:#C1846A;stroke-width:9;stroke-miterlimit:10;}
	.st2{fill:#0E3157;stroke:#C1846A;stroke-width:9;stroke-miterlimit:10;}
</style>
<g id="Capa_1_00000116200392083561938340000015425114789943285425_">
	<g>
		<path class="st0" d="M-6.5,771.5V319.6c0.6-42.7,0.8-82.3,0.8-121.2c1.6-10.9,3-20.5,4.2-29.3c0.2-1.6-0.2-3.1-1.1-4.4
			c-0.9-1.2-2.4-2.1-3.9-2.4V-3.5h1379v775H811.8c-0.9-1.7-2.6-2.7-4.7-2.7c-21.2,0-43.5,0.9-68.4,2.7H-6.5z"/>
		<g>
			<path class="st0" d="M1372-3v774H812.1c-1-1.7-2.8-2.7-5-2.7c-21.1,0-43.5,0.9-68.4,2.7H-6V319.6c0.6-42.6,0.8-82.3,0.8-121.1
				c1.6-11.1,3-20.5,4.2-29.3c0.2-1.7-0.2-3.4-1.2-4.8c-0.9-1.2-2.3-2.1-3.8-2.5V-3H1372 M1373-4H-7v166.7c2.7,0.4,5.5,2.8,5,6.3
				c-1.3,9.8-2.8,19.6-4.2,29.4c0,40.4-0.3,80.8-0.8,121.2V772h745.7c22.8-1.6,45.6-2.6,68.4-2.7l0,0c2.2,0,3.6,1.2,4.3,2.7H1373V-4
				L1373-4z"/>
		</g>
	</g>
</g>
<g id="Capa_2_00000049188605298978770110000011296548912530371490_">
	<path class="st1" d="M624.5,118.5h66.9c-0.1,7.2-0.2,14.3-0.4,21.5c1.7,1.2,18,13.2,18.4,34.8c0.4,22.3-16.5,35-18.1,36.2l2.1,19.6
		c0,0,65.5-58,138.3,0l-0.3,170c0,0,48,82-15,145l-58,71l-4,26h-210v-32l-69-112c0,0-12-61,24-100s103-110,103-110
		c7.2-27.5,14.3-55,21.5-82.5c-3.3-4-6.7-8-10-12c-2.4-7-4.3-16.4-3-27c0.7-5.8,1.3-11,5-16c3.4-4.7,10-10,10-10
		S625.5,133.2,624.5,118.5z"/>
	<path class="st2" d="M699.5,258.5c0,0,69.8-57,107.4,0V384C806.9,384,694.5,294.5,699.5,258.5z"/>
	<path class="st1" d="M505.6,380.5V267.1c0,0,13.7-40.2,58.3-33.9l39.6,20.3l10.1,2.8l6.5-23.8l-38.6-26c0,0-94.4-25.8-107.2,47.8
		c-0.3,1.7-0.5,3.5-0.8,5.3c-9.1,80,5.2,176.4,5.2,176.4L505.6,380.5z"/>
</g>
</svg>
