<?xml version="1.0" encoding="utf-8"?>
<!-- Generator: Adobe Illustrator 27.1.1, SVG Export Plug-In . SVG Version: 6.00 Build 0)  -->
<svg version="1.1" xmlns="http://www.w3.org/2000/svg" xmlns:xlink="http://www.w3.org/1999/xlink" x="0px" y="0px"
	 viewBox="0 0 1366 768" style="enable-background:new 0 0 1366 768;" xml:space="preserve">
<style type="text/css">
	.st0{fill:#0E3157;}
	.st1{fill:none;stroke:#D8B5AB;stroke-width:9;stroke-miterlimit:10;}
</style>
<g id="Capa_1">
	<g>
		<path class="st0" d="M-6.5,771.5V319.56c0.55-42.68,0.83-82.32,0.84-121.18c1.61-10.92,2.98-20.54,4.19-29.32
			c0.22-1.61-0.17-3.12-1.13-4.38c-0.94-1.22-2.37-2.1-3.9-2.41V-3.5h1379v775H811.77c-0.92-1.7-2.6-2.67-4.66-2.67
			c-21.16,0.03-43.55,0.9-68.44,2.67L-6.5,771.5z"/>
		<g>
			<path d="M1372-3v774H812.06c-1.04-1.7-2.81-2.67-4.96-2.67c-21.14,0.03-43.53,0.9-68.44,2.67H-6V319.58
				c0.55-42.65,0.83-82.26,0.84-121.12c1.64-11.15,2.97-20.47,4.18-29.33c0.24-1.74-0.19-3.39-1.23-4.75
				c-0.93-1.21-2.3-2.11-3.79-2.5V-3H1372 M1373-4H-7v166.69c2.73,0.35,5.52,2.77,5.03,6.3c-1.34,9.8-2.75,19.6-4.19,29.39
				C-6.17,238.78-6.48,279.17-7,319.56V772h745.7c22.76-1.62,45.56-2.64,68.4-2.67c0,0,0.01,0,0.01,0c2.19,0,3.64,1.15,4.35,2.67
				H1373V-4L1373-4z"/>
		</g>
	</g>
</g>
<g id="Capa_2">
	<path class="st1" d="M624.5,118.5h66.86c-0.12,7.17-0.24,14.33-0.36,21.5c1.74,1.23,18.04,13.22,18.44,34.77
		c0.42,22.28-16.53,35.02-18.08,36.15l2.14,19.58c0,0,65.52-58,138.26,0l-0.26,170c0,0,48,82-15,145l-58,71l-4,26H544.48v-31.98
		L475.5,498.5c0,0-12-61,24-100s103-110,103-110c7.17-27.5,14.33-55,21.5-82.5c-3.33-4-6.67-8-10-12c-2.36-6.96-4.29-16.35-3-27
		c0.7-5.82,1.33-10.97,5-16c3.41-4.67,10-10,10-10C626,141,625.48,133.17,624.5,118.5z"/>
	<path class="st1" d="M699.5,258.5c0,0,69.84-57,107.42,0V384C806.92,384,694.5,294.5,699.5,258.5z"/>
	<path class="st1" d="M505.6,380.5V267.08c0,0,13.74-40.25,58.32-33.91l39.58,20.33l10.1,2.78l6.48-23.79L581.5,206.5
		c0,0-94.42-25.75-107.17,47.75c-0.3,1.7-0.55,3.46-0.75,5.27c-9.08,79.98,5.25,176.43,5.25,176.43L505.6,380.5z"/>
</g>
</svg>
