<?xml version="1.0" encoding="UTF-8"?>
<svg id="Capa_1" data-name="Capa 1" xmlns="http://www.w3.org/2000/svg" viewBox="0 0 1380 776">
  <defs>
    <style>
      .cls-1 {
        fill: #0e3157;
      }

      .cls-2 {
        fill: #c1846a;
        stroke: #000;
        stroke-miterlimit: 10;
        stroke-width: 2px;
      }
    </style>
  </defs>
  <g id="Capa_1-2" data-name="Capa 1">
    <g>
      <path class="cls-1" d="m.5,775.5v-451.94c.55-42.68.83-82.32.84-121.18,1.61-10.92,2.98-20.54,4.19-29.32.22-1.61-.17-3.12-1.13-4.38-.94-1.22-2.37-2.1-3.9-2.41V.5h1379v775h-560.73c-.92-1.7-2.6-2.67-4.66-2.67-21.16.03-43.55.9-68.44,2.67H.5Z"/>
      <path d="m1379,1v774h-559.94c-1.04-1.7-2.81-2.67-4.96-2.67-21.14.03-43.53.9-68.44,2.67H1v-451.42c.55-42.66.83-82.28.84-121.12,1.64-11.14,2.97-20.46,4.18-29.33.24-1.74-.19-3.39-1.23-4.75-.93-1.21-2.3-2.11-3.79-2.5V1h1378m1-1H0v166.69c2.73.35,5.52,2.77,5.03,6.3-1.34,9.8-2.75,19.6-4.19,29.39-.01,40.4-.32,80.79-.84,121.18v452.44h745.7c22.76-1.62,45.56-2.64,68.4-2.67h.01c2.19,0,3.64,1.15,4.35,2.67h561.54V0h0Z"/>
    </g>
    <path class="cls-2" d="m910,252c0-100.52-81.48-182-182-182s-182,81.48-182,182c0,7.14.41,14.18,1.21,21.1,1,8.69,2.62,17.19,4.81,25.46,10.18,48.48,29.5,111.96,67.98,178.79,36.31,63.06,79.17,137.51,125.5,137.15,78.73-.61,135.56-216.98,155.96-307.28,5.54-17.42,8.54-35.97,8.54-55.22Z"/>
    <g>
      <circle class="cls-1" cx="727.5" cy="242.5" r="99"/>
      <path d="m727.5,144c54.31,0,98.5,44.19,98.5,98.5s-44.19,98.5-98.5,98.5-98.5-44.19-98.5-98.5,44.19-98.5,98.5-98.5m0-1c-54.95,0-99.5,44.55-99.5,99.5s44.55,99.5,99.5,99.5,99.5-44.55,99.5-99.5-44.55-99.5-99.5-99.5h0Z"/>
    </g>
  </g>
</svg>