<?xml version="1.0" encoding="utf-8"?>
<!-- Generator: Adobe Illustrator 27.1.1, SVG Export Plug-In . SVG Version: 6.00 Build 0)  -->
<svg version="1.1" id="Capa_1" xmlns="http://www.w3.org/2000/svg" xmlns:xlink="http://www.w3.org/1999/xlink" x="0px" y="0px"
	 viewBox="0 0 1366 768" style="enable-background:new 0 0 1366 768;" xml:space="preserve">
<style type="text/css">
	.st0{fill:#C1846A;stroke:#000000;stroke-width:2;stroke-miterlimit:10;}
	.st1{fill:#0E3157;stroke:#000000;stroke-width:2;stroke-miterlimit:10;}
	.st2{fill:#C1846A;}
</style>
<g id="Capa_1_00000067203344199186117870000005814292978933697413_">
	<g>
		<path class="st0" d="M-6.5,771.5V319.6c0.6-42.7,0.8-82.3,0.8-121.2c1.6-10.9,3-20.5,4.2-29.3c0.2-1.6-0.2-3.1-1.1-4.4
			c-0.9-1.2-2.4-2.1-3.9-2.4V-3.5h1379v775H811.8c-0.9-1.7-2.6-2.7-4.7-2.7c-21.2,0-43.5,0.9-68.4,2.7H-6.5z"/>
		<g>
			<path class="st0" d="M1372-3v774H812.1c-1-1.7-2.8-2.7-5-2.7c-21.1,0-43.5,0.9-68.4,2.7H-6V319.6c0.6-42.7,0.8-82.3,0.8-121.1
				c1.6-11.1,3-20.5,4.2-29.3c0.2-1.7-0.2-3.4-1.2-4.8c-0.9-1.2-2.3-2.1-3.8-2.5V-3H1372 M1373-4H-7v166.7c2.7,0.4,5.5,2.8,5,6.3
				c-1.3,9.8-2.8,19.6-4.2,29.4c0,40.4-0.3,80.8-0.8,121.2V772h745.7c22.8-1.6,45.6-2.6,68.4-2.7h0c2.2,0,3.6,1.2,4.3,2.7H1373V-4
				L1373-4z"/>
		</g>
	</g>
	<path class="st1" d="M903,248c0-100.5-81.5-182-182-182s-182,81.5-182,182c0,7.1,0.4,14.2,1.2,21.1c1,8.7,2.6,17.2,4.8,25.5
		c10.2,48.5,29.5,112,68,178.8c36.3,63.1,79.2,137.5,125.5,137.2c78.7-0.6,135.6-217,156-307.3C900,285.8,903,267.2,903,248z"/>
	<g>
		<circle class="st2" cx="720.5" cy="238.5" r="99"/>
		<g>
			<path d="M720.5,140c54.3,0,98.5,44.2,98.5,98.5S774.8,337,720.5,337S622,292.8,622,238.5S666.2,140,720.5,140 M720.5,139
				c-55,0-99.5,44.6-99.5,99.5s44.5,99.5,99.5,99.5s99.5-44.5,99.5-99.5S775.5,139,720.5,139L720.5,139z"/>
		</g>
	</g>
</g>
<g id="Capa_2_00000067920834862430003180000013153805148033159822_">
</g>
</svg>
